{
	"asset":{
		"generator":"Khronos glTF Blender I/O v4.4.56",
		"version":"2.0"
	},
	"scene":0,
	"scenes":[
		{
			"name":"Scene",
			"nodes":[
				6
			]
		}
	],
	"nodes":[
		{
			"mesh":0,
			"name":"Glass.001"
		},
		{
			"children":[
				0
			],
			"name":"Glass",
			"scale":[
				0.009999999776482582,
				0.009999999776482582,
				0.009999999776482582
			]
		},
		{
			"mesh":1,
			"name":"watch.001"
		},
		{
			"mesh":2,
			"name":"watch.002"
		},
		{
			"mesh":3,
			"name":"watch.003"
		},
		{
			"children":[
				2,
				3,
				4
			],
			"name":"watch",
			"scale":[
				0.009999999776482582,
				0.009999999776482582,
				0.009999999776482582
			]
		},
		{
			"children":[
				1,
				5
			],
			"name":"RootNode"
		}
	],
	"materials":[
		{
			"alphaMode":"BLEND",
			"name":"Glass_Mat",
			"normalTexture":{
				"index":0
			},
			"occlusionTexture":{
				"index":1
			},
			"pbrMetallicRoughness":{
				"baseColorTexture":{
					"index":2
				},
				"metallicRoughnessTexture":{
					"index":1
				}
			}
		},
		{
			"name":"Dails_Mat",
			"normalTexture":{
				"index":3
			},
			"occlusionTexture":{
				"index":4
			},
			"pbrMetallicRoughness":{
				"baseColorTexture":{
					"index":5
				},
				"metallicRoughnessTexture":{
					"index":4
				}
			}
		},
		{
			"emissiveFactor":[
				1,
				1,
				1
			],
			"emissiveTexture":{
				"index":6
			},
			"name":"Watch_Metal",
			"normalTexture":{
				"index":7
			},
			"occlusionTexture":{
				"index":8
			},
			"pbrMetallicRoughness":{
				"baseColorTexture":{
					"index":9
				},
				"metallicRoughnessTexture":{
					"index":8
				}
			}
		},
		{
			"name":"watch strap",
			"normalTexture":{
				"index":10
			},
			"occlusionTexture":{
				"index":11
			},
			"pbrMetallicRoughness":{
				"baseColorTexture":{
					"index":12
				},
				"metallicRoughnessTexture":{
					"index":11
				}
			}
		}
	],
	"meshes":[
		{
			"name":"Glass",
			"primitives":[
				{
					"attributes":{
						"POSITION":0,
						"NORMAL":1,
						"TEXCOORD_0":2
					},
					"indices":3,
					"material":0
				}
			]
		},
		{
			"name":"watch",
			"primitives":[
				{
					"attributes":{
						"POSITION":4,
						"NORMAL":5,
						"TEXCOORD_0":6
					},
					"indices":7,
					"material":1
				}
			]
		},
		{
			"name":"watch.001",
			"primitives":[
				{
					"attributes":{
						"POSITION":8,
						"NORMAL":9,
						"TEXCOORD_0":10
					},
					"indices":11,
					"material":2
				}
			]
		},
		{
			"name":"watch.002",
			"primitives":[
				{
					"attributes":{
						"POSITION":12,
						"NORMAL":13,
						"TEXCOORD_0":14
					},
					"indices":15,
					"material":3
				}
			]
		}
	],
	"textures":[
		{
			"sampler":0,
			"source":0
		},
		{
			"sampler":0,
			"source":1
		},
		{
			"sampler":0,
			"source":2
		},
		{
			"sampler":0,
			"source":3
		},
		{
			"sampler":0,
			"source":4
		},
		{
			"sampler":0,
			"source":5
		},
		{
			"sampler":0,
			"source":6
		},
		{
			"sampler":0,
			"source":7
		},
		{
			"sampler":0,
			"source":8
		},
		{
			"sampler":0,
			"source":9
		},
		{
			"sampler":0,
			"source":10
		},
		{
			"sampler":0,
			"source":11
		},
		{
			"sampler":0,
			"source":12
		}
	],
	"images":[
		{
			"mimeType":"image/png",
			"name":"Image_5",
			"uri":"Image_5.png"
		},
		{
			"mimeType":"image/png",
			"name":"Image_4",
			"uri":"Image_4.png"
		},
		{
			"mimeType":"image/png",
			"name":"Image_3",
			"uri":"Image_3.png"
		},
		{
			"mimeType":"image/png",
			"name":"Image_2",
			"uri":"Image_2.png"
		},
		{
			"mimeType":"image/png",
			"name":"Image_1",
			"uri":"Image_1.png"
		},
		{
			"mimeType":"image/png",
			"name":"Image_0",
			"uri":"Image_0.png"
		},
		{
			"mimeType":"image/png",
			"name":"Image_12",
			"uri":"Image_12.png"
		},
		{
			"mimeType":"image/png",
			"name":"Image_11",
			"uri":"Image_11.png"
		},
		{
			"mimeType":"image/png",
			"name":"Image_10",
			"uri":"Image_10.png"
		},
		{
			"mimeType":"image/png",
			"name":"Image_9",
			"uri":"Image_9.png"
		},
		{
			"mimeType":"image/png",
			"name":"Image_8",
			"uri":"Image_8.png"
		},
		{
			"mimeType":"image/png",
			"name":"Image_7",
			"uri":"Image_7.png"
		},
		{
			"mimeType":"image/png",
			"name":"Image_6",
			"uri":"Image_6.png"
		}
	],
	"accessors":[
		{
			"bufferView":0,
			"componentType":5126,
			"count":29428,
			"max":[
				4.61116361618042,
				15.055805206298828,
				8.402945518493652
			],
			"min":[
				-4.611163139343262,
				5.83347225189209,
				5.702125072479248
			],
			"type":"VEC3"
		},
		{
			"bufferView":1,
			"componentType":5126,
			"count":29428,
			"type":"VEC3"
		},
		{
			"bufferView":2,
			"componentType":5126,
			"count":29428,
			"type":"VEC2"
		},
		{
			"bufferView":3,
			"componentType":5123,
			"count":144288,
			"type":"SCALAR"
		},
		{
			"bufferView":4,
			"componentType":5126,
			"count":166502,
			"max":[
				4.601440906524658,
				15.04608154296875,
				8.35651683807373
			],
			"min":[
				-4.601440906524658,
				5.84319543838501,
				5.711066722869873
			],
			"type":"VEC3"
		},
		{
			"bufferView":5,
			"componentType":5126,
			"count":166502,
			"type":"VEC3"
		},
		{
			"bufferView":6,
			"componentType":5126,
			"count":166502,
			"type":"VEC2"
		},
		{
			"bufferView":7,
			"componentType":5125,
			"count":805152,
			"type":"SCALAR"
		},
		{
			"bufferView":8,
			"componentType":5126,
			"count":590425,
			"max":[
				4.754383563995361,
				15.940278053283691,
				8.07935619354248
			],
			"min":[
				-6.127740859985352,
				4.9489946365356445,
				-7.2356977462768555
			],
			"type":"VEC3"
		},
		{
			"bufferView":9,
			"componentType":5126,
			"count":590425,
			"type":"VEC3"
		},
		{
			"bufferView":10,
			"componentType":5126,
			"count":590425,
			"type":"VEC2"
		},
		{
			"bufferView":11,
			"componentType":5125,
			"count":2764668,
			"type":"SCALAR"
		},
		{
			"bufferView":12,
			"componentType":5126,
			"count":65898,
			"max":[
				2.641991376876831,
				18.77484130859375,
				6.6624755859375
			],
			"min":[
				-2.641991138458252,
				2.8554792404174805,
				-7.340525150299072
			],
			"type":"VEC3"
		},
		{
			"bufferView":13,
			"componentType":5126,
			"count":65898,
			"type":"VEC3"
		},
		{
			"bufferView":14,
			"componentType":5126,
			"count":65898,
			"type":"VEC2"
		},
		{
			"bufferView":15,
			"componentType":5125,
			"count":340944,
			"type":"SCALAR"
		}
	],
	"bufferViews":[
		{
			"buffer":0,
			"byteLength":353136,
			"byteOffset":0,
			"target":34962
		},
		{
			"buffer":0,
			"byteLength":353136,
			"byteOffset":353136,
			"target":34962
		},
		{
			"buffer":0,
			"byteLength":235424,
			"byteOffset":706272,
			"target":34962
		},
		{
			"buffer":0,
			"byteLength":288576,
			"byteOffset":941696,
			"target":34963
		},
		{
			"buffer":0,
			"byteLength":1998024,
			"byteOffset":1230272,
			"target":34962
		},
		{
			"buffer":0,
			"byteLength":1998024,
			"byteOffset":3228296,
			"target":34962
		},
		{
			"buffer":0,
			"byteLength":1332016,
			"byteOffset":5226320,
			"target":34962
		},
		{
			"buffer":0,
			"byteLength":3220608,
			"byteOffset":6558336,
			"target":34963
		},
		{
			"buffer":0,
			"byteLength":7085100,
			"byteOffset":9778944,
			"target":34962
		},
		{
			"buffer":0,
			"byteLength":7085100,
			"byteOffset":16864044,
			"target":34962
		},
		{
			"buffer":0,
			"byteLength":4723400,
			"byteOffset":23949144,
			"target":34962
		},
		{
			"buffer":0,
			"byteLength":11058672,
			"byteOffset":28672544,
			"target":34963
		},
		{
			"buffer":0,
			"byteLength":790776,
			"byteOffset":39731216,
			"target":34962
		},
		{
			"buffer":0,
			"byteLength":790776,
			"byteOffset":40521992,
			"target":34962
		},
		{
			"buffer":0,
			"byteLength":527184,
			"byteOffset":41312768,
			"target":34962
		},
		{
			"buffer":0,
			"byteLength":1363776,
			"byteOffset":41839952,
			"target":34963
		}
	],
	"samplers":[
		{
			"magFilter":9729,
			"minFilter":9987
		}
	],
	"buffers":[
		{
			"byteLength":43203728,
			"uri":"Untitled.bin"
		}
	]
}
