{
	"asset":{
		"generator":"Khronos glTF Blender I/O v4.4.56",
		"version":"2.0"
	},
	"extensionsUsed":[
		"KHR_materials_transmission"
	],
	"scene":0,
	"scenes":[
		{
			"name":"Scene",
			"nodes":[
				10
			]
		}
	],
	"nodes":[
		{
			"mesh":0,
			"name":"front_rim",
			"rotation":[
				0.70710688829422,
				0,
				0,
				0.7071066498756409
			],
			"translation":[
				6.383528709411621,
				-3.848074436187744,
				-4.792385101318359
			]
		},
		{
			"children":[
				0
			],
			"name":"frame",
			"rotation":[
				-0.70710688829422,
				0,
				0,
				0.7071066498756409
			],
			"translation":[
				-6.383528709411621,
				4.792386054992676,
				-3.848073959350586
			]
		},
		{
			"mesh":1,
			"name":"lens_left",
			"rotation":[
				0.70710688829422,
				0,
				0,
				0.7071066498756409
			],
			"translation":[
				6.383528709411621,
				-3.848074436187744,
				-4.792385101318359
			]
		},
		{
			"mesh":2,
			"name":"lens_right",
			"rotation":[
				0.70710688829422,
				0,
				0,
				0.7071066498756409
			],
			"translation":[
				6.383528709411621,
				-3.848074436187744,
				-4.792385101318359
			]
		},
		{
			"children":[
				2,
				3
			],
			"name":"lenses",
			"rotation":[
				-0.70710688829422,
				0,
				0,
				0.7071066498756409
			],
			"translation":[
				-6.383528709411621,
				4.792386054992676,
				-3.848073959350586
			]
		},
		{
			"mesh":3,
			"name":"temple_left_outer",
			"rotation":[
				0.70710688829422,
				0,
				0,
				0.7071066498756409
			],
			"translation":[
				-6.383528709411621,
				-3.848074436187744,
				-4.792385101318359
			]
		},
		{
			"children":[
				5
			],
			"name":"temple_left",
			"translation":[
				6.383528709411621,
				3.848074436187744,
				4.792385578155518
			]
		},
		{
			"mesh":4,
			"name":"temple_right_outer",
			"rotation":[
				0.70710688829422,
				0,
				0,
				0.7071066498756409
			],
			"translation":[
				6.383528709411621,
				-3.848074436187744,
				-4.792385101318359
			]
		},
		{
			"children":[
				7
			],
			"name":"temple_right",
			"translation":[
				-6.383528709411621,
				3.848074436187744,
				4.792385578155518
			]
		},
		{
			"children":[
				6,
				8
			],
			"name":"temples",
			"rotation":[
				-0.70710688829422,
				0,
				0,
				0.7071066498756409
			]
		},
		{
			"children":[
				1,
				4,
				9
			],
			"name":"DiorSignature",
			"rotation":[
				0.70710688829422,
				0,
				0,
				0.7071066498756409
			],
			"translation":[
				0,
				0,
				-3.0442311763763428
			]
		}
	],
	"materials":[
		{
			"doubleSided":true,
			"extensions":{
				"KHR_materials_transmission":{
					"transmissionFactor":1,
					"transmissionTexture":{
						"index":0
					}
				}
			},
			"name":"Signature C de Cartier Sunglasses",
			"normalTexture":{
				"index":1
			},
			"occlusionTexture":{
				"index":2
			},
			"pbrMetallicRoughness":{
				"baseColorTexture":{
					"index":3
				},
				"metallicRoughnessTexture":{
					"index":2
				}
			}
		}
	],
	"meshes":[
		{
			"name":"Mesh.001",
			"primitives":[
				{
					"attributes":{
						"POSITION":0,
						"NORMAL":1,
						"TEXCOORD_0":2
					},
					"indices":3,
					"material":0
				}
			]
		},
		{
			"name":"Mesh",
			"primitives":[
				{
					"attributes":{
						"POSITION":4,
						"NORMAL":5,
						"TEXCOORD_0":6
					},
					"indices":7,
					"material":0
				}
			]
		},
		{
			"name":"Mesh.004",
			"primitives":[
				{
					"attributes":{
						"POSITION":8,
						"NORMAL":9,
						"TEXCOORD_0":10
					},
					"indices":11,
					"material":0
				}
			]
		},
		{
			"name":"Mesh.002",
			"primitives":[
				{
					"attributes":{
						"POSITION":12,
						"NORMAL":13,
						"TEXCOORD_0":14
					},
					"indices":15,
					"material":0
				}
			]
		},
		{
			"name":"Mesh.003",
			"primitives":[
				{
					"attributes":{
						"POSITION":16,
						"NORMAL":17,
						"TEXCOORD_0":18
					},
					"indices":19,
					"material":0
				}
			]
		}
	],
	"textures":[
		{
			"sampler":0,
			"source":0
		},
		{
			"sampler":0,
			"source":1
		},
		{
			"sampler":0,
			"source":2
		},
		{
			"sampler":0,
			"source":3
		}
	],
	"images":[
		{
			"mimeType":"image/png",
			"name":"Signature C de Cartier Sunglasses_Transmissive",
			"uri":"Signature%20C%20de%20Cartier%20Sunglasses_Transmissive.png"
		},
		{
			"mimeType":"image/png",
			"name":"Signature C de Cartier Sunglasses_normal",
			"uri":"Signature%20C%20de%20Cartier%20Sunglasses_normal.png"
		},
		{
			"mimeType":"image/png",
			"name":"Signature C de Cartier Sunglasses_occlusionRoughnessMetallic",
			"uri":"Signature%20C%20de%20Cartier%20Sunglasses_occlusionRoughnessMetallic.png"
		},
		{
			"mimeType":"image/png",
			"name":"Signature C de Cartier Sunglasses_baseColor",
			"uri":"Signature%20C%20de%20Cartier%20Sunglasses_baseColor.png"
		}
	],
	"accessors":[
		{
			"bufferView":0,
			"componentType":5126,
			"count":37152,
			"max":[
				6.873811721801758,
				6.464048385620117,
				0.02246083877980709
			],
			"min":[
				-6.8738112449646,
				4.728114128112793,
				-5.275252819061279
			],
			"type":"VEC3"
		},
		{
			"bufferView":1,
			"componentType":5126,
			"count":37152,
			"type":"VEC3"
		},
		{
			"bufferView":2,
			"componentType":5126,
			"count":37152,
			"type":"VEC2"
		},
		{
			"bufferView":3,
			"componentType":5123,
			"count":196008,
			"type":"SCALAR"
		},
		{
			"bufferView":4,
			"componentType":5126,
			"count":2612,
			"max":[
				-0.8364962935447693,
				6.374744415283203,
				-0.35379552841186523
			],
			"min":[
				-7.02167272567749,
				5.408254623413086,
				-4.810538291931152
			],
			"type":"VEC3"
		},
		{
			"bufferView":5,
			"componentType":5126,
			"count":2612,
			"type":"VEC3"
		},
		{
			"bufferView":6,
			"componentType":5126,
			"count":2612,
			"type":"VEC2"
		},
		{
			"bufferView":7,
			"componentType":5123,
			"count":15108,
			"type":"SCALAR"
		},
		{
			"bufferView":8,
			"componentType":5126,
			"count":2612,
			"max":[
				7.02167272567749,
				6.3747453689575195,
				-0.35379552841186523
			],
			"min":[
				0.8364963531494141,
				5.408254623413086,
				-4.810538291931152
			],
			"type":"VEC3"
		},
		{
			"bufferView":9,
			"componentType":5126,
			"count":2612,
			"type":"VEC3"
		},
		{
			"bufferView":10,
			"componentType":5126,
			"count":2612,
			"type":"VEC2"
		},
		{
			"bufferView":11,
			"componentType":5123,
			"count":15108,
			"type":"SCALAR"
		},
		{
			"bufferView":12,
			"componentType":5126,
			"count":53973,
			"max":[
				6.857433319091797,
				4.99771785736084,
				0.00015764747513458133
			],
			"min":[
				5.6272664070129395,
				-6.464048385620117,
				-4.571986198425293
			],
			"type":"VEC3"
		},
		{
			"bufferView":13,
			"componentType":5126,
			"count":53973,
			"type":"VEC3"
		},
		{
			"bufferView":14,
			"componentType":5126,
			"count":53973,
			"type":"VEC2"
		},
		{
			"bufferView":15,
			"componentType":5123,
			"count":182964,
			"type":"SCALAR"
		},
		{
			"bufferView":16,
			"componentType":5126,
			"count":56261,
			"max":[
				-5.6272664070129395,
				4.99771785736084,
				0.00015764747513458133
			],
			"min":[
				-6.857433319091797,
				-6.464048385620117,
				-4.571986198425293
			],
			"type":"VEC3"
		},
		{
			"bufferView":17,
			"componentType":5126,
			"count":56261,
			"type":"VEC3"
		},
		{
			"bufferView":18,
			"componentType":5126,
			"count":56261,
			"type":"VEC2"
		},
		{
			"bufferView":19,
			"componentType":5123,
			"count":189126,
			"type":"SCALAR"
		}
	],
	"bufferViews":[
		{
			"buffer":0,
			"byteLength":445824,
			"byteOffset":0,
			"target":34962
		},
		{
			"buffer":0,
			"byteLength":445824,
			"byteOffset":445824,
			"target":34962
		},
		{
			"buffer":0,
			"byteLength":297216,
			"byteOffset":891648,
			"target":34962
		},
		{
			"buffer":0,
			"byteLength":392016,
			"byteOffset":1188864,
			"target":34963
		},
		{
			"buffer":0,
			"byteLength":31344,
			"byteOffset":1580880,
			"target":34962
		},
		{
			"buffer":0,
			"byteLength":31344,
			"byteOffset":1612224,
			"target":34962
		},
		{
			"buffer":0,
			"byteLength":20896,
			"byteOffset":1643568,
			"target":34962
		},
		{
			"buffer":0,
			"byteLength":30216,
			"byteOffset":1664464,
			"target":34963
		},
		{
			"buffer":0,
			"byteLength":31344,
			"byteOffset":1694680,
			"target":34962
		},
		{
			"buffer":0,
			"byteLength":31344,
			"byteOffset":1726024,
			"target":34962
		},
		{
			"buffer":0,
			"byteLength":20896,
			"byteOffset":1757368,
			"target":34962
		},
		{
			"buffer":0,
			"byteLength":30216,
			"byteOffset":1778264,
			"target":34963
		},
		{
			"buffer":0,
			"byteLength":647676,
			"byteOffset":1808480,
			"target":34962
		},
		{
			"buffer":0,
			"byteLength":647676,
			"byteOffset":2456156,
			"target":34962
		},
		{
			"buffer":0,
			"byteLength":431784,
			"byteOffset":3103832,
			"target":34962
		},
		{
			"buffer":0,
			"byteLength":365928,
			"byteOffset":3535616,
			"target":34963
		},
		{
			"buffer":0,
			"byteLength":675132,
			"byteOffset":3901544,
			"target":34962
		},
		{
			"buffer":0,
			"byteLength":675132,
			"byteOffset":4576676,
			"target":34962
		},
		{
			"buffer":0,
			"byteLength":450088,
			"byteOffset":5251808,
			"target":34962
		},
		{
			"buffer":0,
			"byteLength":378252,
			"byteOffset":5701896,
			"target":34963
		}
	],
	"samplers":[
		{
			"magFilter":9729,
			"minFilter":9987
		}
	],
	"buffers":[
		{
			"byteLength":6080148,
			"uri":"Dior%20signature.bin"
		}
	]
}
