{
	"asset":{
		"generator":"Khronos glTF Blender I/O v4.4.56",
		"version":"2.0"
	},
	"extensionsUsed":[
		"KHR_materials_transmission"
	],
	"scene":0,
	"scenes":[
		{
			"name":"Scene",
			"nodes":[
				11
			]
		}
	],
	"nodes":[
		{
			"mesh":0,
			"name":"front_rim",
			"rotation":[
				0.70710688829422,
				0,
				0,
				0.7071066498756409
			]
		},
		{
			"children":[
				0
			],
			"name":"frame",
			"rotation":[
				-0.70710688829422,
				0,
				0,
				0.7071066498756409
			]
		},
		{
			"mesh":1,
			"name":"lens_left",
			"rotation":[
				0.70710688829422,
				0,
				0,
				0.7071066498756409
			]
		},
		{
			"mesh":2,
			"name":"lens_right",
			"rotation":[
				0.70710688829422,
				0,
				0,
				0.7071066498756409
			]
		},
		{
			"children":[
				2,
				3
			],
			"name":"lenses",
			"rotation":[
				-0.70710688829422,
				0,
				0,
				0.7071066498756409
			]
		},
		{
			"mesh":3,
			"name":"nosepad"
		},
		{
			"mesh":4,
			"name":"temple_left_outer",
			"rotation":[
				0.70710688829422,
				0,
				0,
				0.7071066498756409
			],
			"translation":[
				-6.488036155700684,
				-3.666449546813965,
				-5.948271751403809
			]
		},
		{
			"children":[
				6
			],
			"name":"temple_left",
			"translation":[
				6.488036155700684,
				3.6664493083953857,
				5.948271751403809
			]
		},
		{
			"mesh":5,
			"name":"temple_right_outer",
			"rotation":[
				0.70710688829422,
				0,
				0,
				0.7071066498756409
			],
			"translation":[
				6.488036155700684,
				-3.694959878921509,
				-5.948271751403809
			]
		},
		{
			"children":[
				8
			],
			"name":"temple_right",
			"translation":[
				-6.488036155700684,
				3.6949596405029297,
				5.948271751403809
			]
		},
		{
			"children":[
				7,
				9
			],
			"name":"temples",
			"rotation":[
				-0.70710688829422,
				0,
				0,
				0.7071066498756409
			]
		},
		{
			"children":[
				1,
				4,
				5,
				10
			],
			"name":"ClubmasterWay",
			"rotation":[
				0.70710688829422,
				0,
				0,
				0.7071066498756409
			],
			"translation":[
				0,
				0,
				-4.336732387542725
			]
		}
	],
	"materials":[
		{
			"doubleSided":true,
			"extensions":{
				"KHR_materials_transmission":{
					"transmissionFactor":1,
					"transmissionTexture":{
						"index":0
					}
				}
			},
			"name":"Clubmaster Way",
			"normalTexture":{
				"index":1
			},
			"occlusionTexture":{
				"index":2
			},
			"pbrMetallicRoughness":{
				"baseColorTexture":{
					"index":3
				},
				"metallicRoughnessTexture":{
					"index":2
				}
			}
		}
	],
	"meshes":[
		{
			"name":"frame",
			"primitives":[
				{
					"attributes":{
						"POSITION":0,
						"NORMAL":1,
						"TEXCOORD_0":2
					},
					"indices":3,
					"material":0
				}
			]
		},
		{
			"name":"lens_left",
			"primitives":[
				{
					"attributes":{
						"POSITION":4,
						"NORMAL":5,
						"TEXCOORD_0":6
					},
					"indices":7,
					"material":0
				}
			]
		},
		{
			"name":"lens_right",
			"primitives":[
				{
					"attributes":{
						"POSITION":8,
						"NORMAL":9,
						"TEXCOORD_0":10
					},
					"indices":11,
					"material":0
				}
			]
		},
		{
			"name":"Mesh.002",
			"primitives":[
				{
					"attributes":{
						"POSITION":12,
						"NORMAL":13,
						"TEXCOORD_0":14
					},
					"indices":15,
					"material":0
				}
			]
		},
		{
			"name":"temple_left_outer",
			"primitives":[
				{
					"attributes":{
						"POSITION":16,
						"NORMAL":17,
						"TEXCOORD_0":18
					},
					"indices":19,
					"material":0
				}
			]
		},
		{
			"name":"temple_right_outer",
			"primitives":[
				{
					"attributes":{
						"POSITION":20,
						"NORMAL":21,
						"TEXCOORD_0":22
					},
					"indices":23,
					"material":0
				}
			]
		}
	],
	"textures":[
		{
			"sampler":0,
			"source":0
		},
		{
			"sampler":0,
			"source":1
		},
		{
			"sampler":0,
			"source":2
		},
		{
			"sampler":0,
			"source":3
		}
	],
	"images":[
		{
			"mimeType":"image/png",
			"name":"Clubmaster Way_Transmissive",
			"uri":"Clubmaster%20Way_Transmissive.png"
		},
		{
			"mimeType":"image/png",
			"name":"Clubmaster Way_normal",
			"uri":"Clubmaster%20Way_normal.png"
		},
		{
			"mimeType":"image/png",
			"name":"Clubmaster Way_occlusionRoughnessMetallic",
			"uri":"Clubmaster%20Way_occlusionRoughnessMetallic.png"
		},
		{
			"mimeType":"image/png",
			"name":"Clubmaster Way_baseColor",
			"uri":"Clubmaster%20Way_baseColor.png"
		}
	],
	"accessors":[
		{
			"bufferView":0,
			"componentType":5126,
			"count":38722,
			"max":[
				6.997995376586914,
				7.591658115386963,
				-0.003381781978532672
			],
			"min":[
				-6.997995376586914,
				5.848779678344727,
				-4.460789680480957
			],
			"type":"VEC3"
		},
		{
			"bufferView":1,
			"componentType":5126,
			"count":38722,
			"type":"VEC3"
		},
		{
			"bufferView":2,
			"componentType":5126,
			"count":38722,
			"type":"VEC2"
		},
		{
			"bufferView":3,
			"componentType":5123,
			"count":208968,
			"type":"SCALAR"
		},
		{
			"bufferView":4,
			"componentType":5126,
			"count":108,
			"max":[
				6.120167255401611,
				7.243980407714844,
				-0.0464126355946064
			],
			"min":[
				0.8668699264526367,
				6.2338409423828125,
				-4.25787878036499
			],
			"type":"VEC3"
		},
		{
			"bufferView":5,
			"componentType":5126,
			"count":108,
			"type":"VEC3"
		},
		{
			"bufferView":6,
			"componentType":5126,
			"count":108,
			"type":"VEC2"
		},
		{
			"bufferView":7,
			"componentType":5123,
			"count":552,
			"type":"SCALAR"
		},
		{
			"bufferView":8,
			"componentType":5126,
			"count":108,
			"max":[
				-0.8668699264526367,
				7.243980407714844,
				-0.0464126355946064
			],
			"min":[
				-6.120167255401611,
				6.2338409423828125,
				-4.25787878036499
			],
			"type":"VEC3"
		},
		{
			"bufferView":9,
			"componentType":5126,
			"count":108,
			"type":"VEC3"
		},
		{
			"bufferView":10,
			"componentType":5126,
			"count":108,
			"type":"VEC2"
		},
		{
			"bufferView":11,
			"componentType":5123,
			"count":552,
			"type":"SCALAR"
		},
		{
			"bufferView":12,
			"componentType":5126,
			"count":11119,
			"max":[
				1.333518385887146,
				6.98035192489624,
				-0.950394868850708
			],
			"min":[
				-1.333518385887146,
				5.688393592834473,
				-2.2910423278808594
			],
			"type":"VEC3"
		},
		{
			"bufferView":13,
			"componentType":5126,
			"count":11119,
			"type":"VEC3"
		},
		{
			"bufferView":14,
			"componentType":5126,
			"count":11119,
			"type":"VEC2"
		},
		{
			"bufferView":15,
			"componentType":5123,
			"count":61008,
			"type":"SCALAR"
		},
		{
			"bufferView":16,
			"componentType":5126,
			"count":12670,
			"max":[
				7.039245128631592,
				6.427886009216309,
				8.708809036761522e-05
			],
			"min":[
				5.2181878089904785,
				-7.591658592224121,
				-4.052017688751221
			],
			"type":"VEC3"
		},
		{
			"bufferView":17,
			"componentType":5126,
			"count":12670,
			"type":"VEC3"
		},
		{
			"bufferView":18,
			"componentType":5126,
			"count":12670,
			"type":"VEC2"
		},
		{
			"bufferView":19,
			"componentType":5123,
			"count":66000,
			"type":"SCALAR"
		},
		{
			"bufferView":20,
			"componentType":5126,
			"count":12842,
			"max":[
				-5.2181878089904785,
				6.427886009216309,
				8.708809036761522e-05
			],
			"min":[
				-7.039245128631592,
				-7.591658592224121,
				-4.052017688751221
			],
			"type":"VEC3"
		},
		{
			"bufferView":21,
			"componentType":5126,
			"count":12842,
			"type":"VEC3"
		},
		{
			"bufferView":22,
			"componentType":5126,
			"count":12842,
			"type":"VEC2"
		},
		{
			"bufferView":23,
			"componentType":5123,
			"count":66000,
			"type":"SCALAR"
		}
	],
	"bufferViews":[
		{
			"buffer":0,
			"byteLength":464664,
			"byteOffset":0,
			"target":34962
		},
		{
			"buffer":0,
			"byteLength":464664,
			"byteOffset":464664,
			"target":34962
		},
		{
			"buffer":0,
			"byteLength":309776,
			"byteOffset":929328,
			"target":34962
		},
		{
			"buffer":0,
			"byteLength":417936,
			"byteOffset":1239104,
			"target":34963
		},
		{
			"buffer":0,
			"byteLength":1296,
			"byteOffset":1657040,
			"target":34962
		},
		{
			"buffer":0,
			"byteLength":1296,
			"byteOffset":1658336,
			"target":34962
		},
		{
			"buffer":0,
			"byteLength":864,
			"byteOffset":1659632,
			"target":34962
		},
		{
			"buffer":0,
			"byteLength":1104,
			"byteOffset":1660496,
			"target":34963
		},
		{
			"buffer":0,
			"byteLength":1296,
			"byteOffset":1661600,
			"target":34962
		},
		{
			"buffer":0,
			"byteLength":1296,
			"byteOffset":1662896,
			"target":34962
		},
		{
			"buffer":0,
			"byteLength":864,
			"byteOffset":1664192,
			"target":34962
		},
		{
			"buffer":0,
			"byteLength":1104,
			"byteOffset":1665056,
			"target":34963
		},
		{
			"buffer":0,
			"byteLength":133428,
			"byteOffset":1666160,
			"target":34962
		},
		{
			"buffer":0,
			"byteLength":133428,
			"byteOffset":1799588,
			"target":34962
		},
		{
			"buffer":0,
			"byteLength":88952,
			"byteOffset":1933016,
			"target":34962
		},
		{
			"buffer":0,
			"byteLength":122016,
			"byteOffset":2021968,
			"target":34963
		},
		{
			"buffer":0,
			"byteLength":152040,
			"byteOffset":2143984,
			"target":34962
		},
		{
			"buffer":0,
			"byteLength":152040,
			"byteOffset":2296024,
			"target":34962
		},
		{
			"buffer":0,
			"byteLength":101360,
			"byteOffset":2448064,
			"target":34962
		},
		{
			"buffer":0,
			"byteLength":132000,
			"byteOffset":2549424,
			"target":34963
		},
		{
			"buffer":0,
			"byteLength":154104,
			"byteOffset":2681424,
			"target":34962
		},
		{
			"buffer":0,
			"byteLength":154104,
			"byteOffset":2835528,
			"target":34962
		},
		{
			"buffer":0,
			"byteLength":102736,
			"byteOffset":2989632,
			"target":34962
		},
		{
			"buffer":0,
			"byteLength":132000,
			"byteOffset":3092368,
			"target":34963
		}
	],
	"samplers":[
		{
			"magFilter":9729,
			"minFilter":9987
		}
	],
	"buffers":[
		{
			"byteLength":3224368,
			"uri":"Clubmaster%20Way.bin"
		}
	]
}
