{
	"asset":{
		"generator":"Khronos glTF Blender I/O v4.4.56",
		"version":"2.0"
	},
	"scene":0,
	"scenes":[
		{
			"name":"Scene",
			"nodes":[
				2
			]
		}
	],
	"nodes":[
		{
			"mesh":0,
			"name":"Almera_low.001"
		},
		{
			"children":[
				0
			],
			"name":"Almera_low"
		},
		{
			"children":[
				1
			],
			"name":"RootNode",
			"scale":[
				0.009999999776482582,
				0.009999999776482582,
				0.009999999776482582
			]
		}
	],
	"materials":[
		{
			"name":"Almira.001",
			"normalTexture":{
				"index":0
			},
			"occlusionTexture":{
				"index":1
			},
			"pbrMetallicRoughness":{
				"baseColorTexture":{
					"index":2
				},
				"metallicRoughnessTexture":{
					"index":1
				}
			}
		}
	],
	"meshes":[
		{
			"name":"Almera_low.001",
			"primitives":[
				{
					"attributes":{
						"POSITION":0,
						"NORMAL":1,
						"TEXCOORD_0":2
					},
					"indices":3,
					"material":0
				}
			]
		}
	],
	"textures":[
		{
			"sampler":0,
			"source":0
		},
		{
			"sampler":0,
			"source":1
		},
		{
			"sampler":0,
			"source":2
		}
	],
	"images":[
		{
			"mimeType":"image/png",
			"name":"Image_2",
			"uri":"Image_2.png"
		},
		{
			"mimeType":"image/png",
			"name":"Image_1",
			"uri":"Image_1.png"
		},
		{
			"mimeType":"image/png",
			"name":"Image_0",
			"uri":"Image_0.png"
		}
	],
	"accessors":[
		{
			"bufferView":0,
			"componentType":5126,
			"count":20855,
			"max":[
				41.00355911254883,
				189.98434448242188,
				27.3012752532959
			],
			"min":[
				-42.97573471069336,
				0.0731658935546875,
				-24.458263397216797
			],
			"type":"VEC3"
		},
		{
			"bufferView":1,
			"componentType":5126,
			"count":20855,
			"type":"VEC3"
		},
		{
			"bufferView":2,
			"componentType":5126,
			"count":20855,
			"type":"VEC2"
		},
		{
			"bufferView":3,
			"componentType":5123,
			"count":108774,
			"type":"SCALAR"
		}
	],
	"bufferViews":[
		{
			"buffer":0,
			"byteLength":250260,
			"byteOffset":0,
			"target":34962
		},
		{
			"buffer":0,
			"byteLength":250260,
			"byteOffset":250260,
			"target":34962
		},
		{
			"buffer":0,
			"byteLength":166840,
			"byteOffset":500520,
			"target":34962
		},
		{
			"buffer":0,
			"byteLength":217548,
			"byteOffset":667360,
			"target":34963
		}
	],
	"samplers":[
		{
			"magFilter":9729,
			"minFilter":9987
		}
	],
	"buffers":[
		{
			"byteLength":884908,
			"uri":"Almira.bin"
		}
	]
}
